# Made in Blockbench 4.8.3
mtllib materials.mtl

o upper back
v 0.5 4.010416666666666 0.1875
v 0.5 4.010416666666666 -0.375
v 0.5 3.0104166666666665 0.1875
v 0.5 3.0104166666666665 -0.375
v -0.5 4.010416666666666 -0.375
v -0.5 4.010416666666666 0.1875
v -0.5 3.0104166666666665 -0.375
v -0.5 3.0104166666666665 0.1875
vt 0.0703125 0.9296875
vt 0.1953125 0.9296875
vt 0.1953125 0.8046875
vt 0.0703125 0.8046875
vt 0 0.9296875
vt 0.0703125 0.9296875
vt 0.0703125 0.8046875
vt 0 0.8046875
vt 0.265625 0.9296875
vt 0.390625 0.9296875
vt 0.390625 0.8046875
vt 0.265625 0.8046875
vt 0.1953125 0.9296875
vt 0.265625 0.9296875
vt 0.265625 0.8046875
vt 0.1953125 0.8046875
vt 0.1953125 0.9296875
vt 0.0703125 0.9296875
vt 0.0703125 1
vt 0.1953125 1
vt 0.3203125 1
vt 0.1953125 1
vt 0.1953125 0.9296875
vt 0.3203125 0.9296875
vn 0 0 -1
vn 1 0 0
vn 0 0 1
vn -1 0 0
vn 0 1 0
vn 0 -1 0
usemtl m_e7477a7d-bb80-bf1b-43c4-2833dfc8b45d
f 4/4/1 7/3/1 5/2/1 2/1/1
f 3/8/2 4/7/2 2/6/2 1/5/2
f 8/12/3 3/11/3 1/10/3 6/9/3
f 7/16/4 8/15/4 6/14/4 5/13/4
f 6/20/5 1/19/5 2/18/5 5/17/5
f 7/24/6 4/23/6 3/22/6 8/21/6
o right arm bottom
v -0.5 3.249204038220996 0.7698152793871778
v -0.5 3.011458373383822 0.40255073052474
v -0.5 1.570280386278423 1.8566526043571177
v -0.5 1.3325347214412484 1.4893880554946795
v -0.875 3.011458373383822 0.40255073052474
v -0.875 3.249204038220996 0.7698152793871778
v -0.875 1.3325347214412484 1.4893880554946795
v -0.875 1.570280386278423 1.8566526043571177
vt 0.0546875 0.6171875
vt 0.1015625 0.6171875
vt 0.1015625 0.3671875
vt 0.0546875 0.3671875
vt 0 0.6171875
vt 0.0546875 0.6171875
vt 0.0546875 0.3671875
vt 0 0.3671875
vt 0.15625 0.6171875
vt 0.203125 0.6171875
vt 0.203125 0.3671875
vt 0.15625 0.3671875
vt 0.1015625 0.6171875
vt 0.15625 0.6171875
vt 0.15625 0.3671875
vt 0.1015625 0.3671875
vt 0.1015625 0.6171875
vt 0.0546875 0.6171875
vt 0.0546875 0.671875
vt 0.1015625 0.671875
vt 0.1484375 0.671875
vt 0.1015625 0.671875
vt 0.1015625 0.6171875
vt 0.1484375 0.6171875
vn 0 -0.5434186624849697 -0.8394618259712866
vn 1 0 0
vn 0 0.5434186624849697 0.8394618259712866
vn -1 0 0
vn 0 0.8394618259712866 -0.5434186624849697
vn 0 -0.8394618259712866 0.5434186624849697
usemtl m_e7477a7d-bb80-bf1b-43c4-2833dfc8b45d
f 12/28/7 15/27/7 13/26/7 10/25/7
f 11/32/8 12/31/8 10/30/8 9/29/8
f 16/36/9 11/35/9 9/34/9 14/33/9
f 15/40/10 16/39/10 14/38/10 13/37/10
f 14/44/11 9/43/11 10/42/11 13/41/11
f 15/48/12 12/47/12 11/46/12 16/45/12
o right arm top
v -0.5 4.331648978479937 -0.10045422762184725
v -0.5 4.055333449785094 -0.43965325268248856
v -0.5 3.168680892557737 0.8469132993318991
v -0.5 2.892365363862895 0.5077142742712577
v -0.875 4.055333449785094 -0.43965325268248856
v -0.875 4.331648978479937 -0.10045422762184725
v -0.875 2.892365363862895 0.5077142742712577
v -0.875 3.168680892557737 0.8469132993318991
vt 0.0546875 0.6171875
vt 0.1015625 0.6171875
vt 0.1015625 0.4296875
vt 0.0546875 0.4296875
vt 0 0.6171875
vt 0.0546875 0.6171875
vt 0.0546875 0.4296875
vt 0 0.4296875
vt 0.15625 0.6171875
vt 0.203125 0.6171875
vt 0.203125 0.4296875
vt 0.15625 0.4296875
vt 0.1015625 0.6171875
vt 0.15625 0.6171875
vt 0.15625 0.4296875
vt 0.1015625 0.4296875
vt 0.1015625 0.6171875
vt 0.0546875 0.6171875
vt 0.0546875 0.671875
vt 0.1015625 0.671875
vt 0.1484375 0.671875
vt 0.1015625 0.671875
vt 0.1015625 0.6171875
vt 0.1484375 0.6171875
vn 0 -0.6315783513024975 -0.7753120572814659
vn 1 0 0
vn 0 0.6315783513024975 0.7753120572814659
vn -1 0 0
vn 0 0.7753120572814659 -0.6315783513024975
vn 0 -0.7753120572814659 0.6315783513024975
usemtl m_e7477a7d-bb80-bf1b-43c4-2833dfc8b45d
f 20/52/13 23/51/13 21/50/13 18/49/13
f 19/56/14 20/55/14 18/54/14 17/53/14
f 24/60/15 19/59/15 17/58/15 22/57/15
f 23/64/16 24/63/16 22/62/16 21/61/16
f 22/68/17 17/67/17 18/66/17 21/65/17
f 23/72/18 20/71/18 19/70/18 24/69/18
o Left arm bottom
v 0.875 2.9898897444369688 -0.4053005722193118
v 0.875 3.299248961206083 -0.7146597889884264
v 0.875 1.5756761820638738 -1.8195141345924069
v 0.875 1.8850353988329882 -2.1288733513615212
v 0.5 3.299248961206083 -0.7146597889884264
v 0.5 2.9898897444369688 -0.4053005722193118
v 0.5 1.8850353988329882 -2.1288733513615212
v 0.5 1.5756761820638738 -1.8195141345924069
vt 0.0546875 0.6171875
vt 0.1015625 0.6171875
vt 0.1015625 0.3671875
vt 0.0546875 0.3671875
vt 0 0.6171875
vt 0.0546875 0.6171875
vt 0.0546875 0.3671875
vt 0 0.3671875
vt 0.15625 0.6171875
vt 0.203125 0.6171875
vt 0.203125 0.3671875
vt 0.15625 0.3671875
vt 0.1015625 0.6171875
vt 0.15625 0.6171875
vt 0.15625 0.3671875
vt 0.1015625 0.3671875
vt 0.1015625 0.6171875
vt 0.0546875 0.6171875
vt 0.0546875 0.671875
vt 0.1015625 0.671875
vt 0.1484375 0.671875
vt 0.1015625 0.671875
vt 0.1015625 0.6171875
vt 0.1484375 0.6171875
vn 0 0.7071067811865475 -0.7071067811865476
vn 1 0 0
vn 0 -0.7071067811865475 0.7071067811865476
vn -1 0 0
vn 0 0.7071067811865476 0.7071067811865475
vn 0 -0.7071067811865476 -0.7071067811865475
usemtl m_e7477a7d-bb80-bf1b-43c4-2833dfc8b45d
f 28/76/19 31/75/19 29/74/19 26/73/19
f 27/80/20 28/79/20 26/78/20 25/77/20
f 32/84/21 27/83/21 25/82/21 30/81/21
f 31/88/22 32/87/22 30/86/22 29/85/22
f 30/92/23 25/91/23 26/90/23 29/89/23
f 31/96/24 28/95/24 27/94/24 32/93/24
o left arm top
v 0.875 4.21232001715123 0.29383816677303376
v 0.875 4.428308919593317 -0.08662870960631958
v 0.875 2.907862155279161 -0.44669521302841175
v 0.875 3.1238510577212493 -0.827162089407765
v 0.5 4.428308919593317 -0.08662870960631958
v 0.5 4.21232001715123 0.29383816677303376
v 0.5 3.1238510577212493 -0.827162089407765
v 0.5 2.907862155279161 -0.44669521302841175
vt 0.0546875 0.6171875
vt 0.1015625 0.6171875
vt 0.1015625 0.4296875
vt 0.0546875 0.4296875
vt 0 0.6171875
vt 0.0546875 0.6171875
vt 0.0546875 0.4296875
vt 0 0.4296875
vt 0.15625 0.6171875
vt 0.203125 0.6171875
vt 0.203125 0.4296875
vt 0.15625 0.4296875
vt 0.1015625 0.6171875
vt 0.15625 0.6171875
vt 0.15625 0.4296875
vt 0.1015625 0.4296875
vt 0.1015625 0.6171875
vt 0.0546875 0.6171875
vt 0.0546875 0.671875
vt 0.1015625 0.671875
vt 0.1484375 0.671875
vt 0.1015625 0.671875
vt 0.1015625 0.6171875
vt 0.1484375 0.6171875
vn 0 0.4936889198676303 -0.8696385745813789
vn 1 0 0
vn 0 -0.4936889198676303 0.8696385745813789
vn -1 0 0
vn 0 0.8696385745813789 0.4936889198676303
vn 0 -0.8696385745813789 -0.4936889198676303
usemtl m_e7477a7d-bb80-bf1b-43c4-2833dfc8b45d
f 36/100/25 39/99/25 37/98/25 34/97/25
f 35/104/26 36/103/26 34/102/26 33/101/26
f 40/108/27 35/107/27 33/106/27 38/105/27
f 39/112/28 40/111/28 38/110/28 37/109/28
f 38/116/29 33/115/29 34/114/29 37/113/29
f 39/120/30 36/119/30 35/118/30 40/117/30
o cube
v 0.25 4.510416666666666 0.1875
v 0.25 4.510416666666666 -0.3125
v 0.25 3.885416666666666 0.1875
v 0.25 3.885416666666666 -0.3125
v -0.25 4.510416666666666 -0.3125
v -0.25 4.510416666666666 0.1875
v -0.25 3.885416666666666 -0.3125
v -0.25 3.885416666666666 0.1875
vt 0.453125 0.9375
vt 0.515625 0.9375
vt 0.515625 0.859375
vt 0.453125 0.859375
vt 0.390625 0.9375
vt 0.453125 0.9375
vt 0.453125 0.859375
vt 0.390625 0.859375
vt 0.578125 0.9375
vt 0.640625 0.9375
vt 0.640625 0.859375
vt 0.578125 0.859375
vt 0.515625 0.9375
vt 0.578125 0.9375
vt 0.578125 0.859375
vt 0.515625 0.859375
vt 0.515625 0.9375
vt 0.453125 0.9375
vt 0.453125 1
vt 0.515625 1
vt 0.578125 1
vt 0.515625 1
vt 0.515625 0.9375
vt 0.578125 0.9375
vn 0 0 -1
vn 1 0 0
vn 0 0 1
vn -1 0 0
vn 0 1 0
vn 0 -1 0
usemtl m_e7477a7d-bb80-bf1b-43c4-2833dfc8b45d
f 44/124/31 47/123/31 45/122/31 42/121/31
f 43/128/32 44/127/32 42/126/32 41/125/32
f 48/132/33 43/131/33 41/130/33 46/129/33
f 47/136/34 48/135/34 46/134/34 45/133/34
f 46/140/35 41/139/35 42/138/35 45/137/35
f 47/144/36 44/143/36 43/142/36 48/141/36
o cube
v -0.22211098336547147 4.335813185910408 0.1875
v -0.22211098336547147 4.335813185910408 -0.3125
v -0.02377264829266268 4.183622828658228 0.1875
v -0.02377264829266268 4.183622828658228 -0.3125
v -0.48844410855678677 3.9887210995329925 -0.3125
v -0.48844410855678677 3.9887210995329925 0.1875
v -0.290105773483978 3.8365307422808126 -0.3125
v -0.290105773483978 3.8365307422808126 0.1875
vt 0.46875 0.2421875
vt 0.5234375 0.2421875
vt 0.5234375 0.2109375
vt 0.46875 0.2109375
vt 0.40625 0.2421875
vt 0.46875 0.2421875
vt 0.46875 0.2109375
vt 0.40625 0.2109375
vt 0.5859375 0.2421875
vt 0.640625 0.2421875
vt 0.640625 0.2109375
vt 0.5859375 0.2109375
vt 0.5234375 0.2421875
vt 0.5859375 0.2421875
vt 0.5859375 0.2109375
vt 0.5234375 0.2109375
vt 0.5234375 0.2421875
vt 0.46875 0.2421875
vt 0.46875 0.3046875
vt 0.5234375 0.3046875
vt 0.578125 0.3046875
vt 0.5234375 0.3046875
vt 0.5234375 0.2421875
vt 0.578125 0.2421875
vn 0 0 -1
vn 0.6087614290087207 0.7933533402912352 0
vn 0 0 1
vn -0.6087614290087207 -0.7933533402912352 0
vn -0.7933533402912352 0.6087614290087207 0
vn 0.7933533402912352 -0.6087614290087207 0
usemtl m_e7477a7d-bb80-bf1b-43c4-2833dfc8b45d
f 52/148/37 55/147/37 53/146/37 50/145/37
f 51/152/38 52/151/38 50/150/38 49/149/38
f 56/156/39 51/155/39 49/154/39 54/153/39
f 55/160/40 56/159/40 54/158/40 53/157/40
f 54/164/41 49/163/41 50/162/41 53/161/41
f 55/168/42 52/167/42 51/166/42 56/165/42
o cube
v 0.05136340987999288 4.181462093155031 0.1875
v 0.05136340987999288 4.181462093155031 -0.3125
v 0.25615142095224086 4.324856202242793 0.1875
v 0.25615142095224086 4.324856202242793 -0.3125
v 0.3023031007835756 3.823083073778597 -0.3125
v 0.3023031007835756 3.823083073778597 0.1875
v 0.5070911118558235 3.9664771828663588 -0.3125
v 0.5070911118558235 3.9664771828663588 0.1875
vt 0.46875 0.2421875
vt 0.5234375 0.2421875
vt 0.5234375 0.2109375
vt 0.46875 0.2109375
vt 0.40625 0.2421875
vt 0.46875 0.2421875
vt 0.46875 0.2109375
vt 0.40625 0.2109375
vt 0.5859375 0.2421875
vt 0.640625 0.2421875
vt 0.640625 0.2109375
vt 0.5859375 0.2109375
vt 0.5234375 0.2421875
vt 0.5859375 0.2421875
vt 0.5859375 0.2109375
vt 0.5234375 0.2109375
vt 0.5234375 0.2421875
vt 0.46875 0.2421875
vt 0.46875 0.3046875
vt 0.5234375 0.3046875
vt 0.578125 0.3046875
vt 0.5234375 0.3046875
vt 0.5234375 0.2421875
vt 0.578125 0.2421875
vn 0 0 -1
vn -0.5735764363510462 0.8191520442889919 0
vn 0 0 1
vn 0.5735764363510462 -0.8191520442889919 0
vn -0.8191520442889919 -0.5735764363510462 0
vn 0.8191520442889919 0.5735764363510462 0
usemtl m_e7477a7d-bb80-bf1b-43c4-2833dfc8b45d
f 60/172/43 63/171/43 61/170/43 58/169/43
f 59/176/44 60/175/44 58/174/44 57/173/44
f 64/180/45 59/179/45 57/178/45 62/177/45
f 63/184/46 64/183/46 62/182/46 61/181/46
f 62/188/47 57/187/47 58/186/47 61/185/47
f 63/192/48 60/191/48 59/190/48 64/189/48
o cube
v 0.5 5.510416666666666 0.375
v 0.5 5.510416666666666 -0.4375
v 0.5 4.510416666666666 0.375
v 0.5 4.510416666666666 -0.4375
v -0.5 5.510416666666666 -0.4375
v -0.5 5.510416666666666 0.375
v -0.5 4.510416666666666 -0.4375
v -0.5 4.510416666666666 0.375
vt 0.390625 0.671875
vt 0.515625 0.671875
vt 0.515625 0.546875
vt 0.390625 0.546875
vt 0.2890625 0.671875
vt 0.390625 0.671875
vt 0.390625 0.546875
vt 0.2890625 0.546875
vt 0.6171875 0.671875
vt 0.7421875 0.671875
vt 0.7421875 0.546875
vt 0.6171875 0.546875
vt 0.515625 0.671875
vt 0.6171875 0.671875
vt 0.6171875 0.546875
vt 0.515625 0.546875
vt 0.515625 0.671875
vt 0.390625 0.671875
vt 0.390625 0.7734375
vt 0.515625 0.7734375
vt 0.640625 0.7734375
vt 0.515625 0.7734375
vt 0.515625 0.671875
vt 0.640625 0.671875
vn 0 0 -1
vn 1 0 0
vn 0 0 1
vn -1 0 0
vn 0 1 0
vn 0 -1 0
usemtl m_e7477a7d-bb80-bf1b-43c4-2833dfc8b45d
f 68/196/49 71/195/49 69/194/49 66/193/49
f 67/200/50 68/199/50 66/198/50 65/197/50
f 72/204/51 67/203/51 65/202/51 70/201/51
f 71/208/52 72/207/52 70/206/52 69/205/52
f 70/212/53 65/211/53 66/210/53 69/209/53
f 71/216/54 68/215/54 67/214/54 72/213/54
o cube
v -0.5 4.770365810485467 0.013586994951335196
v -0.5 4.620832750979499 -0.5286731954690794
v -0.5 4.589612413678663 0.0634313481199914
v -0.5 4.440079354172694 -0.47882884230042333
v -0.625 4.620832750979499 -0.5286731954690794
v -0.625 4.770365810485467 0.013586994951335196
v -0.625 4.440079354172694 -0.47882884230042333
v -0.625 4.589612413678663 0.0634313481199914
vt 0.828125 0.5390625
vt 0.84375 0.5390625
vt 0.84375 0.515625
vt 0.828125 0.515625
vt 0.7578125 0.5390625
vt 0.828125 0.5390625
vt 0.828125 0.515625
vt 0.7578125 0.515625
vt 0.9140625 0.5390625
vt 0.9296875 0.5390625
vt 0.9296875 0.515625
vt 0.9140625 0.515625
vt 0.84375 0.5390625
vt 0.9140625 0.5390625
vt 0.9140625 0.515625
vt 0.84375 0.515625
vt 0.84375 0.5390625
vt 0.828125 0.5390625
vt 0.828125 0.609375
vt 0.84375 0.609375
vt 0.859375 0.609375
vt 0.84375 0.609375
vt 0.84375 0.5390625
vt 0.859375 0.5390625
vn 0 -0.2658365502328328 -0.9640181163029595
vn 1 0 0
vn 0 0.2658365502328328 0.9640181163029595
vn -1 0 0
vn 0 0.9640181163029595 -0.2658365502328328
vn 0 -0.9640181163029595 0.2658365502328328
usemtl m_e7477a7d-bb80-bf1b-43c4-2833dfc8b45d
f 76/220/55 79/219/55 77/218/55 74/217/55
f 75/224/56 76/223/56 74/222/56 73/221/56
f 80/228/57 75/227/57 73/226/57 78/225/57
f 79/232/58 80/231/58 78/230/58 77/229/58
f 78/236/59 73/235/59 74/234/59 77/233/59
f 79/240/60 76/239/60 75/238/60 80/237/60
o cube
v 0.625 4.770365810485467 0.013586994951335196
v 0.625 4.620832750979499 -0.5286731954690794
v 0.625 4.589612413678663 0.0634313481199914
v 0.625 4.440079354172694 -0.47882884230042333
v 0.5 4.620832750979499 -0.5286731954690794
v 0.5 4.770365810485467 0.013586994951335196
v 0.5 4.440079354172694 -0.47882884230042333
v 0.5 4.589612413678663 0.0634313481199914
vt 0.8125 0.6328125
vt 0.828125 0.6328125
vt 0.828125 0.609375
vt 0.8125 0.609375
vt 0.7421875 0.6328125
vt 0.8125 0.6328125
vt 0.8125 0.609375
vt 0.7421875 0.609375
vt 0.8984375 0.6328125
vt 0.9140625 0.6328125
vt 0.9140625 0.609375
vt 0.8984375 0.609375
vt 0.828125 0.6328125
vt 0.8984375 0.6328125
vt 0.8984375 0.609375
vt 0.828125 0.609375
vt 0.828125 0.6328125
vt 0.8125 0.6328125
vt 0.8125 0.703125
vt 0.828125 0.703125
vt 0.84375 0.703125
vt 0.828125 0.703125
vt 0.828125 0.6328125
vt 0.84375 0.6328125
vn 0 -0.2658365502328328 -0.9640181163029595
vn 1 0 0
vn 0 0.2658365502328328 0.9640181163029595
vn -1 0 0
vn 0 0.9640181163029595 -0.2658365502328328
vn 0 -0.9640181163029595 0.2658365502328328
usemtl m_e7477a7d-bb80-bf1b-43c4-2833dfc8b45d
f 84/244/61 87/243/61 85/242/61 82/241/61
f 83/248/62 84/247/62 82/246/62 81/245/62
f 88/252/63 83/251/63 81/250/63 86/249/63
f 87/256/64 88/255/64 86/254/64 85/253/64
f 86/260/65 81/259/65 82/258/65 85/257/65
f 87/264/66 84/263/66 83/262/66 88/261/66
o cube
v 0.5 4.654062319758603 -0.40817093093120954
v 0.5 4.620832750979499 -0.5286731954690794
v 0.5 4.473308922951798 -0.3583265777625534
v 0.5 4.440079354172694 -0.47882884230042333
v -0.5 4.620832750979499 -0.5286731954690794
v -0.5 4.654062319758603 -0.40817093093120954
v -0.5 4.440079354172694 -0.47882884230042333
v -0.5 4.473308922951798 -0.3583265777625534
vt 0.59375 0.984375
vt 0.71875 0.984375
vt 0.71875 0.9609375
vt 0.59375 0.9609375
vt 0.578125 0.984375
vt 0.59375 0.984375
vt 0.59375 0.9609375
vt 0.578125 0.9609375
vt 0.734375 0.984375
vt 0.859375 0.984375
vt 0.859375 0.9609375
vt 0.734375 0.9609375
vt 0.71875 0.984375
vt 0.734375 0.984375
vt 0.734375 0.9609375
vt 0.71875 0.9609375
vt 0.71875 0.984375
vt 0.59375 0.984375
vt 0.59375 1
vt 0.71875 1
vt 0.84375 1
vt 0.71875 1
vt 0.71875 0.984375
vt 0.84375 0.984375
vn 0 -0.2658365502328328 -0.9640181163029595
vn 1 0 0
vn 0 0.2658365502328328 0.9640181163029595
vn -1 0 0
vn 0 0.9640181163029595 -0.2658365502328328
vn 0 -0.9640181163029595 0.2658365502328328
usemtl m_e7477a7d-bb80-bf1b-43c4-2833dfc8b45d
f 92/268/67 95/267/67 93/266/67 90/265/67
f 91/272/68 92/271/68 90/270/68 89/269/68
f 96/276/69 91/275/69 89/274/69 94/273/69
f 95/280/70 96/279/70 94/278/70 93/277/70
f 94/284/71 89/283/71 90/282/71 93/281/71
f 95/288/72 92/287/72 91/286/72 96/285/72
o lower back
v 0.5 3.1354166666666665 0.1875
v 0.5 3.1354166666666665 -0.375
v 0.5 1.9479166666666665 0.1875
v 0.5 1.9479166666666665 -0.375
v -0.5 3.1354166666666665 -0.375
v -0.5 3.1354166666666665 0.1875
v -0.5 1.9479166666666665 -0.375
v -0.5 1.9479166666666665 0.1875
vt 0.0703125 0.9296875
vt 0.1953125 0.9296875
vt 0.1953125 0.78125
vt 0.0703125 0.78125
vt 0 0.9296875
vt 0.0703125 0.9296875
vt 0.0703125 0.78125
vt 0 0.78125
vt 0.265625 0.9296875
vt 0.390625 0.9296875
vt 0.390625 0.78125
vt 0.265625 0.78125
vt 0.1953125 0.9296875
vt 0.265625 0.9296875
vt 0.265625 0.78125
vt 0.1953125 0.78125
vt 0.1953125 0.9296875
vt 0.0703125 0.9296875
vt 0.0703125 1
vt 0.1953125 1
vt 0.3203125 1
vt 0.1953125 1
vt 0.1953125 0.9296875
vt 0.3203125 0.9296875
vn 0 0 -1
vn 1 0 0
vn 0 0 1
vn -1 0 0
vn 0 1 0
vn 0 -1 0
usemtl m_e7477a7d-bb80-bf1b-43c4-2833dfc8b45d
f 100/292/73 103/291/73 101/290/73 98/289/73
f 99/296/74 100/295/74 98/294/74 97/293/74
f 104/300/75 99/299/75 97/298/75 102/297/75
f 103/304/76 104/303/76 102/302/76 101/301/76
f 102/308/77 97/307/77 98/306/77 101/305/77
f 103/312/78 100/311/78 99/310/78 104/309/78
o left leg bottom
v -0.0625 1.323413602114243 -0.05278619253246758
v -0.0625 1.4087656179962993 -0.48187975270888095
v -0.0625 -0.08646523846540077 -0.3332285304306519
v -0.0625 -0.0011132225833447862 -0.7623220906070652
v -0.4375 1.4087656179962993 -0.48187975270888095
v -0.4375 1.323413602114243 -0.05278619253246758
v -0.4375 -0.0011132225833447862 -0.7623220906070652
v -0.4375 -0.08646523846540077 -0.3332285304306519
vt 0.6640625 0.4921875
vt 0.7109375 0.4921875
vt 0.7109375 0.3125
vt 0.6640625 0.3125
vt 0.609375 0.4921875
vt 0.6640625 0.4921875
vt 0.6640625 0.3125
vt 0.609375 0.3125
vt 0.765625 0.4921875
vt 0.8125 0.4921875
vt 0.8125 0.3125
vt 0.765625 0.3125
vt 0.7109375 0.4921875
vt 0.765625 0.4921875
vt 0.765625 0.3125
vt 0.7109375 0.3125
vt 0.7109375 0.4921875
vt 0.6640625 0.4921875
vt 0.6640625 0.546875
vt 0.7109375 0.546875
vt 0.7578125 0.546875
vt 0.7109375 0.546875
vt 0.7109375 0.4921875
vt 0.7578125 0.4921875
vn 0 0.1950903220161282 -0.9807852804032305
vn 1 0 0
vn 0 -0.1950903220161282 0.9807852804032305
vn -1 0 0
vn 0 0.9807852804032305 0.1950903220161282
vn 0 -0.9807852804032305 -0.1950903220161282
usemtl m_e7477a7d-bb80-bf1b-43c4-2833dfc8b45d
f 108/316/79 111/315/79 109/314/79 106/313/79
f 107/320/80 108/319/80 106/318/80 105/317/80
f 112/324/81 107/323/81 105/322/81 110/321/81
f 111/328/82 112/327/82 110/326/82 109/325/82
f 110/332/83 105/331/83 106/330/83 109/329/83
f 111/336/84 108/335/84 107/334/84 112/333/84
o left leg top
v -0.0625 2.0941978091720364 0.1714149274343506
v -0.0625 2.2135653077140507 -0.24948607077285523
v -0.0625 1.1321383846984232 -0.1014250692331104
v -0.0625 1.2515058832404373 -0.5223260674403162
v -0.4375 2.2135653077140507 -0.24948607077285523
v -0.4375 2.0941978091720364 0.1714149274343506
v -0.4375 1.2515058832404373 -0.5223260674403162
v -0.4375 1.1321383846984232 -0.1014250692331104
vt 0.6640625 0.4921875
vt 0.7109375 0.4921875
vt 0.7109375 0.3671875
vt 0.6640625 0.3671875
vt 0.609375 0.4921875
vt 0.6640625 0.4921875
vt 0.6640625 0.3671875
vt 0.609375 0.3671875
vt 0.765625 0.4921875
vt 0.8125 0.4921875
vt 0.8125 0.3671875
vt 0.765625 0.3671875
vt 0.7109375 0.4921875
vt 0.765625 0.4921875
vt 0.765625 0.3671875
vt 0.7109375 0.3671875
vt 0.7109375 0.4921875
vt 0.6640625 0.4921875
vt 0.6640625 0.546875
vt 0.7109375 0.546875
vt 0.7578125 0.546875
vt 0.7109375 0.546875
vt 0.7109375 0.4921875
vt 0.7578125 0.4921875
vn 0 0.272839996667461 -0.9620594244736133
vn 1 0 0
vn 0 -0.272839996667461 0.9620594244736133
vn -1 0 0
vn 0 0.9620594244736133 0.272839996667461
vn 0 -0.9620594244736133 -0.272839996667461
usemtl m_e7477a7d-bb80-bf1b-43c4-2833dfc8b45d
f 116/340/85 119/339/85 117/338/85 114/337/85
f 115/344/86 116/343/86 114/342/86 113/341/86
f 120/348/87 115/347/87 113/346/87 118/345/87
f 119/352/88 120/351/88 118/350/88 117/349/88
f 118/356/89 113/355/89 114/354/89 117/353/89
f 119/360/90 116/359/90 115/358/90 120/357/90
o right leg bottom
v 0.4375 1.5025602498204886 0.3368241120395399
v 0.4375 1.0932135866406938 0.1824169899772221
v 0.4375 0.9952225630443019 1.681820291058866
v 0.4375 0.5858758998645068 1.5274131689965484
v 0.0625 1.0932135866406938 0.1824169899772221
v 0.0625 1.5025602498204886 0.3368241120395399
v 0.0625 0.5858758998645068 1.5274131689965484
v 0.0625 0.9952225630443019 1.681820291058866
vt 0.6640625 0.4921875
vt 0.7109375 0.4921875
vt 0.7109375 0.3125
vt 0.6640625 0.3125
vt 0.609375 0.4921875
vt 0.6640625 0.4921875
vt 0.6640625 0.3125
vt 0.609375 0.3125
vt 0.765625 0.4921875
vt 0.8125 0.4921875
vt 0.8125 0.3125
vt 0.765625 0.3125
vt 0.7109375 0.4921875
vt 0.765625 0.4921875
vt 0.765625 0.3125
vt 0.7109375 0.3125
vt 0.7109375 0.4921875
vt 0.6640625 0.4921875
vt 0.6640625 0.546875
vt 0.7109375 0.546875
vt 0.7578125 0.546875
vt 0.7109375 0.546875
vt 0.7109375 0.4921875
vt 0.7578125 0.4921875
vn 0 -0.9356495158395314 -0.35293056471386913
vn 1 0 0
vn 0 0.9356495158395314 0.35293056471386913
vn -1 0 0
vn 0 0.35293056471386913 -0.9356495158395314
vn 0 -0.35293056471386913 0.9356495158395314
usemtl m_e7477a7d-bb80-bf1b-43c4-2833dfc8b45d
f 124/364/91 127/363/91 125/362/91 122/361/91
f 123/368/92 124/367/92 122/366/92 121/365/92
f 128/372/93 123/371/93 121/370/93 126/369/93
f 127/376/94 128/375/94 126/374/94 125/373/94
f 126/380/95 121/379/95 122/378/95 125/377/95
f 127/384/96 124/383/96 123/382/96 128/381/96
o right leg top
v 0.4375 2.136891174611238 -0.12124874581192296
v 0.4375 1.8389825810029174 -0.4416496194909945
v 0.4375 1.4045463204876456 0.5596851824356674
v 0.4375 1.1066377268793248 0.2392843087565959
v 0.0625 1.8389825810029174 -0.4416496194909945
v 0.0625 2.136891174611238 -0.12124874581192296
v 0.0625 1.1066377268793248 0.2392843087565959
v 0.0625 1.4045463204876456 0.5596851824356674
vt 0.6640625 0.4921875
vt 0.7109375 0.4921875
vt 0.7109375 0.3671875
vt 0.6640625 0.3671875
vt 0.609375 0.4921875
vt 0.6640625 0.4921875
vt 0.6640625 0.3671875
vt 0.609375 0.3671875
vt 0.765625 0.4921875
vt 0.8125 0.4921875
vt 0.8125 0.3671875
vt 0.765625 0.3671875
vt 0.7109375 0.4921875
vt 0.765625 0.4921875
vt 0.765625 0.3671875
vt 0.7109375 0.3671875
vt 0.7109375 0.4921875
vt 0.6640625 0.4921875
vt 0.6640625 0.546875
vt 0.7109375 0.546875
vt 0.7578125 0.546875
vt 0.7109375 0.546875
vt 0.7109375 0.4921875
vt 0.7578125 0.4921875
vn 0 -0.6809339282475904 -0.7323448541235922
vn 1 0 0
vn 0 0.6809339282475904 0.7323448541235922
vn -1 0 0
vn 0 0.7323448541235922 -0.6809339282475904
vn 0 -0.7323448541235922 0.6809339282475904
usemtl m_e7477a7d-bb80-bf1b-43c4-2833dfc8b45d
f 132/388/97 135/387/97 133/386/97 130/385/97
f 131/392/98 132/391/98 130/390/98 129/389/98
f 136/396/99 131/395/99 129/394/99 134/393/99
f 135/400/100 136/399/100 134/398/100 133/397/100
f 134/404/101 129/403/101 130/402/101 133/401/101
f 135/408/102 132/407/102 131/406/102 136/405/102